Coordinates
version=1
nRows=9
nColumns=42
inDegrees=yes

Units are S.I. units (second, meters, Newtons, ...)
If the header above contains a line with 'inDegrees', this indicates whether rotational values are in degrees (yes) or radians (no).

endheader
time	pelvis_tilt	pelvis_list	pelvis_rotation	pelvis_tx	pelvis_ty	pelvis_tz	hip_flexion_r	hip_adduction_r	hip_rotation_r	knee_angle_r	knee_angle_r_beta	ankle_angle_r	subtalar_angle_r	mtp_angle_r	hip_flexion_l	hip_adduction_l	hip_rotation_l	knee_angle_l	knee_angle_l_beta	ankle_angle_l	subtalar_angle_l	mtp_angle_l	lumbar_extension	lumbar_bending	lumbar_rotation	sh_tx_r	sh_ty_r	sh_tz_r	sh_plane_elev_r	sh_elev_r	sh_axial_rot_r	elbow_flex_r	pro_sup_r	sh_tx_l	sh_ty_l	sh_tz_l	sh_plane_elev_l	sh_elev_l	sh_axial_rot_l	elbow_flex_l	pro_sup_l
      4.93333330	     -4.15292730	      0.14970946	     -1.56222973	      0.24523620	      0.93322753	     -0.08448170	      1.12125566	     -6.89692107	     -7.33711773	      2.09610594	      0.03658395	      5.48804358	     -1.62599423	     -7.49999987	      3.22697282	     -1.82294627	     -8.18295841	      0.59928770	      0.01045954	      6.26741678	     -0.30585557	     -7.49999987	     -0.44408291	      0.42587924	     -3.65073504	     -0.00251946	     -0.01242094	     -0.00569886	     -6.38191014	      5.87781953	      1.62178077	     28.07790717	    103.02933937	     -0.00714653	      0.00429725	     -0.00615102	     61.75049517	     40.29350498	    -38.17284281	     27.74752548	      6.03815418
      4.95000000	     -4.23690679	      0.21170867	     -1.55817971	      0.24536865	      0.93345860	     -0.08506366	      1.26095843	     -6.94870896	     -7.28261697	      2.10849436	      0.03680017	      5.27837871	     -2.09071466	     -7.49999987	      3.32848503	     -1.75408474	     -8.11885496	      0.61660735	      0.01076183	      6.20144443	     -0.43601869	     -7.49999987	     -0.20112323	      0.30835066	     -4.53140934	      0.00150788	     -0.01196889	     -0.00577661	     -4.40770781	      6.15080865	      1.53868160	     27.69069389	    103.42867291	     -0.00421575	      0.00526098	     -0.00638812	     58.17945263	     37.12844427	    -40.40920706	     32.45255107	      7.10587616
      4.96666670	     -4.28602904	      0.29717620	     -1.54302797	      0.24592017	      0.93340485	     -0.08417267	      1.34172469	     -7.02462727	     -7.23226521	      2.14963252	      0.03751817	      5.27425069	     -2.14876400	     -7.49999987	      3.40443308	     -1.66899171	     -8.27911135	      0.64870389	      0.01132202	      6.31681759	     -0.11377692	     -7.49999987	      0.16016199	     -0.05810433	     -4.63575461	      0.00476594	     -0.01142844	     -0.00580908	     -3.15823763	      6.32836422	      2.12848641	     26.79896992	     97.98607756	     -0.00112150	      0.00505576	     -0.00646120	     56.37095955	     34.94643233	    -40.10695560	     34.01747612	     16.07586744
      4.98333330	     -4.36980799	      0.29535322	     -1.48146515	      0.25026853	      0.93365567	     -0.08038500	      1.37179311	     -6.95667182	     -7.35729441	      2.15571371	      0.03762430	      5.22155109	     -2.18597006	     -7.49999987	      3.44523671	     -1.72008757	     -7.92915247	      0.64953175	      0.01133647	      6.07454087	     -0.67310830	     -7.49999987	      0.15171519	     -0.14410947	     -4.77506936	      0.00442349	     -0.01102642	     -0.00582380	     -4.17110442	      6.16988803	      0.93981210	     27.78335695	     99.94819753	      0.00155684	      0.00539577	     -0.00655795	     53.51194117	     32.26010742	    -39.33135855	     37.78206488	     11.01926667
      5.00000000	     -4.44924391	      0.28035026	     -1.48567151	      0.25060304	      0.93357420	     -0.07947962	      1.40667057	     -6.86666717	     -7.43142952	      2.20089583	      0.03841288	      5.26151845	     -2.27652126	     -7.49999987	      3.46474843	     -1.79761338	     -7.93227038	      0.65743078	      0.01147433	      5.99538027	     -0.77515551	     -7.49999987	      0.49545884	     -0.29219352	     -5.75846365	      0.00864685	     -0.01047209	     -0.00586644	     -2.91834717	      6.20438259	      0.99506318	     27.61775594	     98.79011259	      0.00270759	      0.00529258	     -0.00654466	     49.75697517	     29.70637033	    -37.60206539	     40.17997398	     12.94591824
      5.01666670	     -4.41946110	      0.27502662	     -1.51356523	      0.25037417	      0.93096021	     -0.08039871	      1.35673664	     -6.80452669	     -7.63090216	      2.26542781	      0.03953917	      5.43792133	     -2.15449510	     -7.49999987	      3.36909906	     -1.84144933	     -7.73085257	      0.66666929	      0.01163557	      6.01579406	     -1.10761387	     -7.49999987	      0.50618252	     -0.46124747	     -5.59539985	      0.00880835	     -0.00977261	     -0.00586909	     -2.21061437	      6.41087399	      1.13676803	     27.58784200	     97.56289768	      0.00227619	      0.00435659	     -0.00656997	     48.91378443	     28.50566673	    -36.28146046	     40.67693380	     14.75717028
      5.03333330	     -4.43427012	      0.23423666	     -1.55898623	      0.24618767	      0.93115783	     -0.08428358	      1.41209511	     -6.77090882	     -7.74240674	      2.24036746	      0.03910179	      5.38836882	     -2.42225263	     -7.49999987	      3.41371443	     -1.85812542	     -7.80600555	      0.68327553	      0.01192541	      6.09106314	     -1.19149304	     -7.49999987	      0.50921971	     -0.46779718	     -5.40645977	      0.00928060	     -0.00937098	     -0.00573238	     -2.27356200	      6.53210441	      0.94692867	     27.89810381	     97.45370232	      0.00227031	      0.00322063	     -0.00642170	     48.92559154	     27.58713662	    -36.09027466	     40.56376500	     14.86364183
      5.05000000	     -4.68228010	      0.19214578	     -1.60174867	      0.25073881	      0.93142851	     -0.08044924	      1.66101409	     -6.67399423	     -7.48362263	      2.24453627	      0.03917455	      5.15511152	     -3.05182344	     -7.49999987	      3.62024418	     -1.94077910	     -7.68110735	      0.67485807	      0.01177850	      6.10809895	     -1.42599905	     -7.49999987	      1.21565862	     -0.51036462	     -6.20415705	      0.01307218	     -0.00977993	     -0.00582109	     -2.30063545	      6.36134777	      1.71078574	     27.89945162	     92.59464900	      0.00858685	      0.00214055	     -0.00642818	     42.06661023	     24.43255144	    -32.55926750	     43.16769006	     21.07529971
      5.06666670	     -4.91987666	      0.19700661	     -1.59208132	      0.24194219	      0.93126386	     -0.08891138	      2.04060075	     -6.77144998	     -7.62124518	      2.29135412	      0.03999167	      5.02445606	     -3.39491992	     -7.49999987	      4.01114037	     -1.81394453	     -7.54754269	      0.67946470	      0.01185890	      6.18054519	     -1.57650734	     -7.49999987	      1.42797917	     -0.42679062	     -6.22981573	      0.01421628	     -0.00987535	     -0.00574744	     -1.26116868	      6.61543454	      1.30367405	     28.10840292	     90.20988378	      0.00878246	     -0.00007336	     -0.00639522	     41.66625435	     23.64656058	    -31.75920275	     41.67976471	     23.31305760
